<svg xmlns="http://www.w3.org/2000/svg" viewBox="0 0 512 512" width="512" height="512">
  <!-- 背景グラデーション -->
  <defs>
    <linearGradient id="bgGradient" x1="0%" y1="0%" x2="100%" y2="100%">
      <stop offset="0%" style="stop-color:#87ceeb;stop-opacity:1" />
      <stop offset="100%" style="stop-color:#5ac8fa;stop-opacity:1" />
    </linearGradient>
    <linearGradient id="calendarBodyGradient" x1="0%" y1="0%" x2="100%" y2="100%">
      <stop offset="0%" style="stop-color:#4a90a4;stop-opacity:1" />
      <stop offset="100%" style="stop-color:#5a9fb8;stop-opacity:1" />
    </linearGradient>
    <linearGradient id="whiteGradient" x1="0%" y1="0%" x2="100%" y2="100%">
      <stop offset="0%" style="stop-color:#ffffff;stop-opacity:1" />
      <stop offset="100%" style="stop-color:#f8f9fa;stop-opacity:1" />
    </linearGradient>
  </defs>
  
  <!-- 背景 -->
  <rect width="512" height="512" rx="120" fill="url(#bgGradient)"/>
  
  <!-- カレンダーアイコン -->
  <g transform="translate(96, 96)">
    <!-- カレンダーヘッダー（青い部分） -->
    <rect x="0" y="48" width="320" height="80" rx="24" fill="url(#calendarBodyGradient)"/>
    
    <!-- カレンダー本体（白い部分） -->
    <rect x="0" y="100" width="320" height="224" rx="0" rx-bottom="24" fill="url(#whiteGradient)"/>
    
    <!-- カレンダーの穴（綴じ部分） -->
    <rect x="96" y="12" width="32" height="80" rx="16" fill="url(#calendarBodyGradient)"/>
    <rect x="192" y="12" width="32" height="80" rx="16" fill="url(#calendarBodyGradient)"/>
    
    <!-- 穴の中の影 -->
    <rect x="104" y="20" width="16" height="64" rx="8" fill="#2c5f70"/>
    <rect x="200" y="20" width="16" height="64" rx="8" fill="#2c5f70"/>
    
    <!-- カレンダーグリッド -->
    <!-- 横線 -->
    <line x1="40" x2="280" y1="160" y2="160" stroke="#87ceeb" stroke-width="2"/>
    <line x1="40" x2="280" y1="210" y2="210" stroke="#87ceeb" stroke-width="2"/>
    <line x1="40" x2="280" y1="260" y2="260" stroke="#87ceeb" stroke-width="2"/>
    
    <!-- 縦線 -->  
    <line x1="120" x2="120" y1="130" y2="290" stroke="#87ceeb" stroke-width="2"/>
    <line x1="200" x2="200" y1="130" y2="290" stroke="#87ceeb" stroke-width="2"/>
    
    <!-- ハートマーク（右上のセル） -->
    <g transform="translate(230, 145)">
      <path d="M0,5 C0,2 2,0 5,0 C8,0 10,2 10,5 C10,8 5,15 5,15 S0,8 0,5 Z" fill="#5ac8fa"/>
      <path d="M10,5 C10,2 12,0 15,0 C18,0 20,2 20,5 C20,8 15,15 15,15 S10,8 10,5 Z" fill="#5ac8fa"/>
      <path d="M0,5 C0,0 5,0 10,5 C10,0 15,0 20,5 C20,10 10,20 10,20 S0,10 0,5 Z" fill="#5ac8fa"/>
    </g>
  </g>
</svg>